<svg xmlns="http://www.w3.org/2000/svg" xmlns:xlink="http://www.w3.org/1999/xlink" width="80" zoomAndPan="magnify" viewBox="0 0 60 67.499998" height="90" preserveAspectRatio="xMidYMid meet" version="1.0"><defs><clipPath id="354e45d9a7"><path d="M 0.21875 47 L 24 47 L 24 67.003906 L 0.21875 67.003906 Z M 0.21875 47 " clip-rule="nonzero"/></clipPath><clipPath id="ffae196a17"><path d="M 23 0.285156 L 48 0.285156 L 48 24 L 23 24 Z M 23 0.285156 " clip-rule="nonzero"/></clipPath><clipPath id="492089ea5d"><path d="M 0.21875 0.285156 L 24 0.285156 L 24 24 L 0.21875 24 Z M 0.21875 0.285156 " clip-rule="nonzero"/></clipPath><clipPath id="e40f0e4aee"><path d="M 0.21875 23 L 24 23 L 24 48 L 0.21875 48 Z M 0.21875 23 " clip-rule="nonzero"/></clipPath></defs><path fill="#1abcfe" d="M 23.636719 35.664062 C 23.636719 29.171875 28.890625 23.882812 35.394531 23.882812 C 41.871094 23.882812 47.152344 29.144531 47.152344 35.664062 C 47.152344 42.15625 41.898438 47.445312 35.394531 47.445312 C 28.914062 47.445312 23.636719 42.15625 23.636719 35.664062 Z M 23.636719 35.664062 " fill-opacity="1" fill-rule="nonzero"/><g clip-path="url(#354e45d9a7)"><path fill="#0acf83" d="M 0.148438 59.199219 C 0.148438 52.707031 5.402344 47.417969 11.90625 47.417969 L 23.664062 47.417969 L 23.664062 59.199219 C 23.664062 65.691406 18.410156 70.980469 11.90625 70.980469 C 5.402344 70.980469 0.148438 65.71875 0.148438 59.199219 Z M 0.148438 59.199219 " fill-opacity="1" fill-rule="nonzero"/></g><g clip-path="url(#ffae196a17)"><path fill="#ff7262" d="M 23.636719 0.34375 L 23.636719 23.882812 L 35.394531 23.882812 C 41.871094 23.882812 47.152344 18.617188 47.152344 12.101562 C 47.152344 5.609375 41.898438 0.320312 35.394531 0.320312 L 23.636719 0.320312 Z M 23.636719 0.34375 " fill-opacity="1" fill-rule="nonzero"/></g><g clip-path="url(#492089ea5d)"><path fill="#f24e1e" d="M 0.148438 12.125 C 0.148438 18.617188 5.402344 23.90625 11.90625 23.90625 L 23.664062 23.90625 L 23.664062 0.34375 L 11.90625 0.34375 C 5.402344 0.34375 0.148438 5.609375 0.148438 12.125 Z M 0.148438 12.125 " fill-opacity="1" fill-rule="nonzero"/></g><g clip-path="url(#e40f0e4aee)"><path fill="#a259ff" d="M 0.148438 35.664062 C 0.148438 42.15625 5.402344 47.445312 11.90625 47.445312 L 23.664062 47.445312 L 23.664062 23.882812 L 11.90625 23.882812 C 5.402344 23.882812 0.148438 29.171875 0.148438 35.664062 Z M 0.148438 35.664062 " fill-opacity="1" fill-rule="nonzero"/></g></svg>